<svg width="216" height="97" viewBox="0 0 216 97" fill="none" xmlns="http://www.w3.org/2000/svg">
<path d="M20.96 48.688C20.96 44.6773 21.3867 40.7947 22.24 37.04C23.1787 33.2853 24.6293 29.9573 26.592 27.056C28.5547 24.0693 31.1147 21.7227 34.272 20.016C37.4293 18.224 41.2693 17.328 45.792 17.328C50.3147 17.328 54.1547 18.224 57.312 20.016C60.4693 21.7227 63.0293 24.0693 64.992 27.056C66.9547 29.9573 68.3627 33.2853 69.216 37.04C70.1547 40.7947 70.624 44.6773 70.624 48.688C70.624 52.528 70.1547 56.2827 69.216 59.952C68.3627 63.536 66.9547 66.7787 64.992 69.68C63.0293 72.5813 60.4693 74.928 57.312 76.72C54.1547 78.4267 50.3147 79.28 45.792 79.28C41.2693 79.28 37.4293 78.4267 34.272 76.72C31.1147 74.928 28.5547 72.5813 26.592 69.68C24.6293 66.7787 23.1787 63.536 22.24 59.952C21.3867 56.2827 20.96 52.528 20.96 48.688ZM0.864 48.688C0.864 55.344 1.888 61.5733 3.936 67.376C5.984 73.0933 8.928 78.0853 12.768 82.352C16.608 86.6187 21.3013 89.9893 26.848 92.464C32.48 94.8533 38.7947 96.048 45.792 96.048C52.8747 96.048 59.1893 94.8533 64.736 92.464C70.2827 89.9893 74.976 86.6187 78.816 82.352C82.656 78.0853 85.6 73.0933 87.648 67.376C89.696 61.5733 90.72 55.344 90.72 48.688C90.72 41.8613 89.696 35.5467 87.648 29.744C85.6 23.856 82.656 18.736 78.816 14.384C74.976 10.032 70.2827 6.61866 64.736 4.144C59.1893 1.66933 52.8747 0.431999 45.792 0.431999C38.7947 0.431999 32.48 1.66933 26.848 4.144C21.3013 6.61866 16.608 10.032 12.768 14.384C8.928 18.736 5.984 23.856 3.936 29.744C1.888 35.5467 0.864 41.8613 0.864 48.688ZM104.457 2.60799V94H124.553V64.56L136.073 52.912L163.593 94H188.809L149.641 38.704L185.353 2.60799H160.265L124.553 40.496V2.60799H104.457ZM195.68 74.288V94H215.776V74.288H195.68Z" fill="#E5987F"/>
</svg>
