<?xml version="1.0" standalone="no"?>
<!DOCTYPE svg PUBLIC "-//W3C//DTD SVG 20010904//EN"
 "http://www.w3.org/TR/2001/REC-SVG-20010904/DTD/svg10.dtd">
<svg version="1.0" xmlns="http://www.w3.org/2000/svg"
 width="1728.000000pt" height="1728.000000pt" viewBox="0 0 1728.000000 1728.000000"
 preserveAspectRatio="xMidYMid meet">
<metadata>
Created by potrace 1.14, written by Peter Selinger 2001-2017
</metadata>
<g transform="translate(0.000000,1728.000000) scale(0.100000,-0.100000)"
fill="#000000" stroke="none">
<path d="M3435 12482 c-1 -2 -34 -5 -71 -7 -38 -3 -96 -7 -129 -11 -33 -3 -73
-7 -90 -9 -47 -4 -128 -15 -145 -20 -8 -3 -31 -7 -50 -9 -19 -3 -44 -7 -55 -9
-17 -4 -100 -19 -115 -22 -3 0 -11 -4 -17 -8 -7 -5 -13 -6 -13 -3 0 2 -24 -2
-52 -10 -53 -15 -74 -20 -115 -28 -12 -3 -30 -9 -40 -14 -10 -6 -20 -10 -23
-10 -21 0 -208 -63 -295 -101 -29 -12 -69 -28 -77 -30 -16 -4 -324 -164 -338
-175 -13 -10 -69 -46 -175 -109 -11 -7 -22 -14 -25 -17 -3 -3 -45 -34 -95 -70
-49 -35 -97 -71 -106 -80 -9 -8 -36 -31 -60 -50 -53 -42 -310 -297 -362 -360
-20 -25 -43 -52 -50 -60 -33 -35 -167 -220 -167 -228 0 -6 -3 -12 -8 -14 -8
-3 -92 -124 -92 -133 0 -3 -12 -24 -27 -48 -47 -73 -213 -394 -213 -412 0 -3
-11 -28 -24 -57 -56 -124 -176 -481 -191 -570 -3 -17 -8 -35 -11 -40 -3 -5 -7
-18 -10 -31 -2 -12 -6 -33 -9 -47 -33 -153 -52 -251 -60 -320 -2 -14 -4 -25
-5 -25 -1 0 -3 -11 -5 -25 -1 -14 -5 -54 -9 -90 -4 -36 -9 -76 -11 -90 -18
-94 -26 -756 -12 -895 3 -27 8 -84 12 -125 3 -41 8 -82 10 -90 2 -8 7 -37 10
-65 9 -84 34 -224 61 -345 32 -142 28 -126 43 -180 8 -25 14 -49 15 -55 2 -5
9 -30 16 -55 8 -25 14 -48 16 -52 1 -5 2 -9 4 -10 1 -2 3 -10 5 -18 11 -47 91
-262 131 -348 13 -29 24 -55 24 -58 0 -7 109 -225 139 -276 11 -21 31 -55 42
-75 12 -21 30 -50 40 -64 10 -14 16 -29 12 -33 -3 -3 -1 -6 5 -6 6 0 19 -15
28 -32 9 -18 34 -56 56 -84 21 -28 38 -54 38 -57 0 -4 8 -15 18 -25 9 -10 24
-29 32 -41 8 -13 22 -31 30 -41 8 -10 33 -39 55 -66 154 -184 355 -380 512
-497 37 -28 77 -59 87 -69 11 -10 26 -18 33 -18 7 0 13 -4 13 -8 0 -4 22 -21
50 -37 27 -17 50 -33 50 -37 0 -5 4 -8 9 -8 4 0 53 -27 107 -60 54 -33 102
-60 107 -60 5 0 22 -9 38 -21 16 -11 29 -17 29 -13 0 4 8 0 18 -8 15 -13 57
-34 152 -76 19 -9 37 -16 40 -17 8 -3 63 -24 88 -35 12 -6 32 -14 45 -19 26
-11 182 -62 200 -65 23 -5 102 -27 117 -33 18 -8 17 -7 60 -16 42 -8 72 -15
103 -22 23 -6 99 -20 177 -34 25 -4 48 -8 53 -9 4 -1 8 -2 10 -3 2 0 48 -5
127 -13 30 -3 69 -8 87 -10 17 -3 77 -7 133 -10 56 -4 106 -9 111 -12 5 -3 9
-1 9 4 0 6 14 7 33 3 68 -14 538 4 672 25 17 3 50 7 75 10 54 6 305 50 305 54
0 1 11 4 24 6 14 2 52 12 85 20 34 9 68 18 76 19 8 2 15 4 15 5 0 1 8 3 17 5
23 4 118 34 143 45 11 5 49 19 85 31 36 12 84 30 108 40 23 10 46 19 50 20 4
0 18 7 32 14 14 8 43 22 65 31 22 10 42 20 45 23 3 4 38 21 78 40 39 19 72 38
72 42 0 4 11 10 24 13 14 3 31 12 38 19 7 6 27 19 43 27 17 8 32 17 35 20 3 3
46 32 95 65 78 51 185 129 227 164 7 6 33 28 58 49 105 87 250 229 338 331
112 128 92 103 171 212 34 46 67 91 74 99 13 15 64 92 83 125 6 11 29 50 52
86 44 72 139 254 189 364 43 94 139 345 149 388 1 4 3 9 4 12 1 3 4 10 5 15 1
6 4 12 5 15 1 3 4 10 5 15 1 6 3 11 5 13 1 1 3 9 5 17 1 8 10 40 19 71 9 31
18 65 21 75 2 11 16 71 30 134 15 63 28 126 30 140 2 14 4 25 5 25 2 0 7 25
14 72 3 21 8 49 10 63 5 27 12 85 21 165 3 28 8 70 10 95 25 221 25 739 1 945
-14 119 -18 154 -22 185 -3 19 -6 53 -9 75 -2 22 -5 40 -5 40 -3 0 -15 63 -25
135 -8 51 -10 59 -18 80 -7 19 -15 56 -23 106 -3 21 -10 47 -15 57 -5 9 -7 17
-4 17 3 0 -1 15 -9 34 -8 19 -12 36 -10 39 2 2 -2 20 -10 39 -8 19 -17 46 -20
59 -6 32 -64 199 -116 334 -48 125 -197 436 -214 447 -6 4 -7 8 -2 8 5 0 2 8
-6 18 -8 9 -34 51 -58 92 -24 41 -47 76 -52 78 -4 2 -8 8 -8 14 0 8 -74 122
-90 138 -3 3 -34 43 -69 90 -143 188 -357 411 -511 530 -24 19 -53 43 -64 52
-11 10 -38 30 -60 45 -23 15 -43 30 -46 33 -20 21 -181 124 -305 195 -77 44
-294 150 -350 170 -27 10 -55 22 -61 27 -7 5 -20 11 -30 13 -11 2 -56 18 -101
34 -46 16 -83 27 -83 24 0 -3 -6 -1 -12 5 -12 9 -207 62 -283 77 -60 12 -113
22 -140 28 -11 3 -42 8 -68 11 -27 4 -56 9 -65 10 -52 10 -184 23 -312 32 -84
6 -520 11 -525 6z m365 -1352 c0 -3 28 -6 63 -6 34 -1 78 -4 97 -8 19 -3 51
-8 70 -10 19 -2 46 -7 60 -10 14 -3 36 -8 50 -11 48 -9 110 -25 147 -39 21 -7
56 -19 78 -26 41 -13 206 -89 215 -99 3 -3 19 -13 35 -21 150 -74 376 -267
501 -430 66 -85 134 -186 134 -199 0 -6 5 -11 10 -11 6 0 10 -6 10 -14 0 -7 7
-19 15 -26 8 -7 12 -16 9 -21 -3 -5 -2 -9 3 -9 9 0 53 -91 53 -109 0 -6 5 -11
10 -11 6 0 10 -5 10 -10 0 -6 9 -30 20 -52 11 -23 20 -48 20 -55 0 -7 5 -13
11 -13 5 0 8 -4 5 -8 -2 -4 4 -28 16 -52 11 -25 21 -54 24 -64 3 -16 13 -50
29 -104 3 -7 5 -14 5 -17 1 -3 6 -19 11 -37 6 -18 13 -44 16 -58 10 -50 11
-55 13 -55 1 0 3 -11 6 -25 2 -14 7 -36 11 -50 4 -14 7 -29 8 -35 1 -5 7 -37
13 -70 26 -127 38 -206 47 -300 3 -27 8 -81 12 -120 8 -88 9 -548 0 -635 -7
-74 -15 -137 -23 -195 -3 -22 -8 -53 -10 -70 -2 -16 -6 -43 -9 -60 -8 -37 -36
-167 -39 -180 -2 -5 -7 -28 -11 -50 -12 -55 -12 -55 -15 -57 -1 -2 -3 -10 -5
-18 -1 -8 -9 -35 -16 -60 -7 -25 -13 -47 -14 -50 -33 -123 -164 -429 -187
-438 -4 -2 -8 -9 -8 -16 0 -7 -11 -30 -25 -50 -13 -20 -21 -36 -17 -36 4 0 3
-4 -3 -8 -5 -4 -28 -34 -50 -67 -61 -92 -162 -213 -240 -288 -74 -73 -240
-201 -315 -245 -25 -14 -46 -30 -48 -34 -2 -4 -12 -8 -22 -8 -10 0 -20 -4 -22
-8 -4 -11 -170 -82 -192 -82 -9 0 -16 -4 -16 -8 0 -5 -6 -9 -12 -10 -7 0 -67
-14 -133 -30 -134 -34 -204 -46 -340 -57 -68 -6 -338 -6 -400 0 -71 6 -137 14
-160 19 -21 4 -116 18 -125 18 -3 0 -15 4 -28 9 -13 5 -36 11 -52 14 -53 9
-225 72 -295 107 -127 64 -283 165 -293 190 -2 4 -8 8 -13 8 -22 0 -289 263
-289 284 0 3 -13 20 -30 38 -16 18 -30 36 -30 41 0 4 -6 15 -12 23 -29 33 -34
41 -52 74 -11 19 -22 37 -25 40 -13 11 -98 176 -135 260 -16 36 -36 83 -46
105 -10 22 -25 65 -34 95 -20 63 -23 72 -25 82 -1 4 -8 23 -17 43 -8 19 -12
35 -9 35 4 0 3 6 -2 13 -4 6 -8 17 -9 22 -4 18 -14 67 -28 125 -9 37 -16 80
-22 125 -2 22 -6 45 -9 52 -2 6 -7 38 -10 70 -4 32 -8 69 -11 83 -8 47 -18
185 -18 267 -1 46 -3 83 -6 83 -4 0 -3 175 1 235 0 6 0 21 -1 35 -4 71 31 426
55 551 2 9 6 32 9 50 33 208 127 505 209 664 12 22 22 45 23 52 5 30 183 314
230 370 11 11 33 38 51 60 62 76 201 208 253 242 14 8 27 18 30 22 9 11 143
95 204 128 33 17 64 35 70 39 33 23 230 93 333 117 138 33 183 40 332 50 35 3
65 6 67 7 5 5 254 3 254 -2z"/>
<path d="M8395 12310 l-40 -5 0 -3653 0 -3653 40 1 c22 0 48 0 58 0 9 0 23 0
30 1 6 0 38 0 70 -1 32 -2 60 0 63 3 3 3 16 2 28 -3 13 -4 29 -4 36 0 9 5 20
4 27 -2 9 -7 13 -7 13 1 0 7 4 10 8 7 7 -4 66 -6 175 -6 9 1 47 0 83 -1 36 -1
68 1 71 4 3 3 16 2 29 -3 13 -5 25 -6 28 -1 3 4 27 5 53 1 27 -3 62 -3 80 1
17 3 37 3 44 -2 7 -4 20 -4 29 1 11 6 21 5 28 -2 7 -7 12 -8 12 -2 0 5 31 7
75 4 42 -3 83 -2 93 1 9 4 27 3 39 -2 13 -5 25 -4 28 1 3 5 16 6 28 1 12 -4
33 -5 47 -1 14 4 34 3 46 -1 11 -4 27 -3 34 1 8 5 17 7 21 4 8 -4 89 -5 154
-1 l40 2 0 1176 0 1175 267 270 c146 148 354 357 460 465 l194 196 109 -165
c61 -90 118 -173 128 -185 9 -11 17 -26 17 -33 0 -7 4 -14 8 -16 4 -1 85 -118
178 -258 94 -140 192 -286 217 -323 26 -38 47 -71 47 -74 0 -4 7 -15 17 -25 9
-10 21 -27 27 -37 6 -11 39 -60 74 -111 34 -50 62 -95 62 -100 0 -5 3 -10 8
-12 10 -4 132 -186 132 -197 0 -5 4 -11 8 -13 5 -1 121 -172 259 -378 407
-610 417 -625 424 -630 3 -3 8 -10 10 -15 7 -19 324 -490 332 -493 4 -2 7 -10
7 -18 0 -8 3 -14 8 -14 4 0 16 -17 27 -37 11 -20 35 -55 52 -77 18 -23 33 -46
33 -53 0 -6 8 -14 18 -17 25 -8 121 -10 128 -3 3 3 17 2 30 -3 13 -5 25 -6 28
-1 3 4 27 5 53 1 27 -3 62 -3 80 1 17 3 37 3 44 -2 7 -4 20 -4 29 1 11 6 21 5
28 -2 7 -7 12 -8 12 -2 0 5 31 7 75 4 42 -3 83 -2 93 1 9 4 27 3 39 -2 12 -5
24 -5 27 0 3 4 27 5 53 2 26 -4 62 -4 78 -1 17 3 45 3 63 -1 17 -4 32 -4 32 0
0 7 24 6 95 -3 11 -1 32 1 47 5 15 4 30 4 33 -1 3 -4 20 -4 39 0 19 4 40 4 46
0 7 -4 26 -4 41 0 16 5 31 5 34 0 3 -4 20 -4 39 0 19 4 40 4 46 0 7 -4 26 -4
41 0 16 5 31 5 34 0 3 -4 20 -4 39 0 19 4 40 4 46 0 7 -4 26 -4 41 0 16 5 31
5 34 0 3 -4 20 -5 38 -1 18 5 41 6 52 5 11 -2 45 -4 75 -4 97 1 123 -1 132 -6
4 -3 8 -1 8 4 0 9 64 7 80 -3 5 -3 11 -1 15 5 4 6 12 7 24 1 9 -5 23 -6 29 -2
9 6 -2 29 -40 82 -29 41 -65 93 -81 115 -15 22 -36 50 -48 62 -11 12 -17 22
-14 22 4 0 -24 40 -88 124 -12 16 -47 66 -77 110 -30 45 -58 83 -62 84 -5 2
-8 10 -8 18 0 8 -4 14 -10 14 -5 0 -10 5 -10 10 0 6 -8 18 -17 29 -10 10 -47
61 -83 112 -35 52 -68 96 -72 97 -4 2 -8 8 -8 13 0 8 -45 71 -86 122 -8 9 -14
19 -14 22 0 3 -24 38 -53 78 -53 72 -83 116 -102 146 -5 9 -13 18 -16 21 -3 3
-26 34 -51 70 -25 36 -67 96 -94 133 -27 38 -53 76 -59 85 -5 10 -12 19 -15
22 -6 6 -53 72 -126 177 -26 37 -51 70 -56 71 -4 2 -8 8 -8 13 0 5 -15 28 -32
52 -18 24 -40 54 -48 66 -26 38 -110 155 -125 174 -8 9 -15 19 -15 22 0 4 -76
113 -98 140 -9 11 -228 322 -306 434 -22 31 -43 58 -48 59 -4 2 -8 9 -8 15 -1
7 -14 28 -30 47 -17 19 -30 40 -30 46 0 7 -4 14 -8 16 -5 2 -39 46 -76 98 -37
52 -74 104 -82 115 -8 11 -37 52 -64 90 -27 39 -53 75 -57 80 -4 6 -21 30 -37
55 -17 25 -35 50 -40 55 -19 18 -56 74 -56 84 0 5 -4 11 -8 13 -7 3 -183 246
-207 286 -5 9 -12 19 -15 22 -3 3 -13 16 -22 30 -10 14 -30 43 -46 65 -15 22
-46 65 -67 95 -21 30 -41 57 -45 60 -4 3 -13 16 -20 29 -7 14 -17 30 -22 35
-5 6 -54 73 -108 150 l-99 139 187 189 c103 104 331 335 507 513 176 178 608
614 960 970 352 356 765 773 918 927 153 155 275 283 273 285 -2 3 -452 5
-999 5 l-994 0 -64 -68 c-35 -36 -82 -86 -104 -109 -67 -71 -288 -306 -320
-340 -16 -17 -88 -93 -160 -169 -71 -76 -152 -162 -180 -191 -27 -29 -99 -106
-160 -170 -60 -65 -130 -139 -155 -165 -25 -26 -101 -107 -170 -180 -69 -73
-143 -152 -165 -175 -22 -23 -76 -80 -120 -127 -92 -98 -319 -339 -385 -408
-25 -26 -97 -103 -160 -170 -63 -68 -135 -144 -160 -170 -25 -26 -103 -110
-175 -186 -71 -76 -162 -173 -202 -214 -39 -41 -94 -99 -121 -127 -27 -29 -51
-53 -54 -53 -2 0 -3 678 -3 1506 0 1178 -3 1508 -12 1511 -17 7 -1508 9 -1558
3z"/>
<path d="M15656 6571 c-1 -4 -2 -357 -2 -786 1 -773 1 -780 21 -781 11 -1 39
-3 62 -5 23 -2 44 -1 47 2 3 3 30 2 61 -1 30 -3 55 -3 55 0 0 6 25 5 95 -4 11
-1 32 1 47 5 15 4 30 4 33 -1 3 -4 20 -4 39 0 19 4 40 4 46 0 7 -4 26 -4 41 0
16 5 31 5 34 0 3 -4 20 -4 39 0 19 4 40 4 46 0 7 -4 26 -4 41 0 16 5 31 5 34
0 3 -4 20 -4 39 0 19 4 40 4 46 0 7 -4 26 -4 41 0 16 5 31 5 34 0 3 -4 20 -5
38 -1 18 5 41 6 52 5 11 -2 45 -4 75 -4 97 1 123 -1 132 -6 4 -3 8 -1 8 3 0 5
15 8 33 6 56 -6 158 -5 164 0 3 3 16 2 29 -3 14 -6 26 -6 29 1 4 5 10 7 14 5
9 -6 75 -8 110 -4 l24 3 -1 765 c0 421 -1 774 -1 786 l-1 20 -801 0 c-440 0
-801 -2 -803 -5z"/>
</g>
</svg>
